<svg width="99" height="15" viewBox="0 0 99 15" fill="none" xmlns="http://www.w3.org/2000/svg">
<path d="M0.418914 14V1.22H6.07091C6.65891 1.22 7.19891 1.34 7.69091 1.58C8.19491 1.82 8.62691 2.144 8.98691 2.552C9.35891 2.96 9.64091 3.416 9.83291 3.92C10.0369 4.424 10.1389 4.94 10.1389 5.468C10.1389 6.008 10.0429 6.53 9.85091 7.034C9.67091 7.526 9.40691 7.958 9.05891 8.33C8.71091 8.702 8.30291 8.99 7.83491 9.194L10.7509 14H8.01491L5.38691 9.716H2.90291V14H0.418914ZM2.90291 7.538H6.01691C6.32891 7.538 6.60491 7.448 6.84491 7.268C7.08491 7.076 7.27691 6.824 7.42091 6.512C7.56491 6.2 7.63691 5.852 7.63691 5.468C7.63691 5.06 7.55291 4.706 7.38491 4.406C7.21691 4.094 7.00091 3.848 6.73691 3.668C6.48491 3.488 6.20891 3.398 5.90891 3.398H2.90291V7.538ZM16.2132 14.18C15.4572 14.18 14.7732 14.054 14.1612 13.802C13.5492 13.538 13.0272 13.184 12.5952 12.74C12.1632 12.284 11.8272 11.768 11.5872 11.192C11.3592 10.604 11.2452 9.986 11.2452 9.338C11.2452 8.438 11.4432 7.616 11.8392 6.872C12.2472 6.128 12.8232 5.534 13.5672 5.09C14.3232 4.634 15.2112 4.406 16.2312 4.406C17.2632 4.406 18.1452 4.634 18.8772 5.09C19.6092 5.534 20.1672 6.128 20.5512 6.872C20.9472 7.604 21.1452 8.396 21.1452 9.248C21.1452 9.392 21.1392 9.542 21.1272 9.698C21.1152 9.842 21.1032 9.962 21.0912 10.058H13.8012C13.8492 10.538 13.9872 10.958 14.2152 11.318C14.4552 11.678 14.7552 11.954 15.1152 12.146C15.4872 12.326 15.8832 12.416 16.3032 12.416C16.7832 12.416 17.2332 12.302 17.6532 12.074C18.0852 11.834 18.3792 11.522 18.5352 11.138L20.6052 11.714C20.3772 12.194 20.0472 12.62 19.6152 12.992C19.1952 13.364 18.6972 13.658 18.1212 13.874C17.5452 14.078 16.9092 14.18 16.2132 14.18ZM13.7472 8.528H18.6792C18.6312 8.048 18.4932 7.634 18.2652 7.286C18.0492 6.926 17.7612 6.65 17.4012 6.458C17.0412 6.254 16.6392 6.152 16.1952 6.152C15.7632 6.152 15.3672 6.254 15.0072 6.458C14.6592 6.65 14.3712 6.926 14.1432 7.286C13.9272 7.634 13.7952 8.048 13.7472 8.528ZM27.0066 14.18C26.2386 14.18 25.5486 14.054 24.9366 13.802C24.3246 13.538 23.8026 13.178 23.3706 12.722C22.9386 12.254 22.6026 11.726 22.3626 11.138C22.1346 10.55 22.0206 9.932 22.0206 9.284C22.0206 8.396 22.2186 7.586 22.6146 6.854C23.0226 6.11 23.5986 5.516 24.3426 5.072C25.0866 4.628 25.9686 4.406 26.9886 4.406C28.0086 4.406 28.8846 4.628 29.6166 5.072C30.3486 5.516 30.8946 6.098 31.2546 6.818L28.8966 7.538C28.6926 7.19 28.4226 6.926 28.0866 6.746C27.7506 6.554 27.3786 6.458 26.9706 6.458C26.5146 6.458 26.0946 6.578 25.7106 6.818C25.3386 7.046 25.0446 7.376 24.8286 7.808C24.6126 8.228 24.5046 8.72 24.5046 9.284C24.5046 9.836 24.6126 10.328 24.8286 10.76C25.0566 11.18 25.3566 11.516 25.7286 11.768C26.1006 12.008 26.5146 12.128 26.9706 12.128C27.2586 12.128 27.5286 12.08 27.7806 11.984C28.0446 11.888 28.2786 11.756 28.4826 11.588C28.6866 11.42 28.8366 11.228 28.9326 11.012L31.2906 11.732C31.0746 12.2 30.7566 12.62 30.3366 12.992C29.9286 13.364 29.4426 13.658 28.8786 13.874C28.3266 14.078 27.7026 14.18 27.0066 14.18ZM41.5408 14H39.1288V8.708C39.1288 7.976 38.9848 7.43 38.6968 7.07C38.4208 6.71 38.0368 6.53 37.5448 6.53C37.2568 6.53 36.9508 6.614 36.6268 6.782C36.3028 6.95 36.0088 7.184 35.7448 7.484C35.4928 7.772 35.3068 8.108 35.1868 8.492V14H32.7748V0.86H35.1868V6.314C35.5348 5.714 36.0088 5.246 36.6088 4.91C37.2088 4.574 37.8628 4.406 38.5708 4.406C39.1828 4.406 39.6808 4.514 40.0648 4.73C40.4488 4.934 40.7488 5.216 40.9648 5.576C41.1808 5.924 41.3308 6.32 41.4148 6.764C41.4988 7.196 41.5408 7.646 41.5408 8.114V14ZM48.012 14.18C47.256 14.18 46.572 14.054 45.96 13.802C45.348 13.538 44.826 13.184 44.394 12.74C43.962 12.284 43.626 11.768 43.386 11.192C43.158 10.604 43.044 9.986 43.044 9.338C43.044 8.438 43.242 7.616 43.638 6.872C44.046 6.128 44.622 5.534 45.366 5.09C46.122 4.634 47.01 4.406 48.03 4.406C49.062 4.406 49.944 4.634 50.676 5.09C51.408 5.534 51.966 6.128 52.35 6.872C52.746 7.604 52.944 8.396 52.944 9.248C52.944 9.392 52.938 9.542 52.926 9.698C52.914 9.842 52.902 9.962 52.89 10.058H45.6C45.648 10.538 45.786 10.958 46.014 11.318C46.254 11.678 46.554 11.954 46.914 12.146C47.286 12.326 47.682 12.416 48.102 12.416C48.582 12.416 49.032 12.302 49.452 12.074C49.884 11.834 50.178 11.522 50.334 11.138L52.404 11.714C52.176 12.194 51.846 12.62 51.414 12.992C50.994 13.364 50.496 13.658 49.92 13.874C49.344 14.078 48.708 14.18 48.012 14.18ZM45.546 8.528H50.478C50.43 8.048 50.292 7.634 50.064 7.286C49.848 6.926 49.56 6.65 49.2 6.458C48.84 6.254 48.438 6.152 47.994 6.152C47.562 6.152 47.166 6.254 46.806 6.458C46.458 6.65 46.17 6.926 45.942 7.286C45.726 7.634 45.594 8.048 45.546 8.528ZM60.0294 6.656C59.2974 6.656 58.6434 6.8 58.0674 7.088C57.4914 7.364 57.0774 7.766 56.8254 8.294V14H54.4134V4.568H56.6274V6.584C56.9634 5.936 57.3894 5.426 57.9054 5.054C58.4214 4.682 58.9674 4.478 59.5434 4.442C59.6754 4.442 59.7774 4.442 59.8494 4.442C59.9214 4.442 59.9814 4.448 60.0294 4.46V6.656ZM65.6433 14.18C64.8753 14.18 64.1853 14.054 63.5733 13.802C62.9613 13.538 62.4393 13.178 62.0073 12.722C61.5753 12.254 61.2393 11.726 60.9993 11.138C60.7713 10.55 60.6573 9.932 60.6573 9.284C60.6573 8.396 60.8553 7.586 61.2513 6.854C61.6593 6.11 62.2353 5.516 62.9793 5.072C63.7233 4.628 64.6053 4.406 65.6253 4.406C66.6453 4.406 67.5213 4.628 68.2533 5.072C68.9853 5.516 69.5313 6.098 69.8913 6.818L67.5333 7.538C67.3293 7.19 67.0593 6.926 66.7233 6.746C66.3873 6.554 66.0153 6.458 65.6073 6.458C65.1513 6.458 64.7313 6.578 64.3473 6.818C63.9753 7.046 63.6813 7.376 63.4653 7.808C63.2493 8.228 63.1413 8.72 63.1413 9.284C63.1413 9.836 63.2493 10.328 63.4653 10.76C63.6933 11.18 63.9933 11.516 64.3653 11.768C64.7373 12.008 65.1513 12.128 65.6073 12.128C65.8953 12.128 66.1653 12.08 66.4173 11.984C66.6813 11.888 66.9153 11.756 67.1193 11.588C67.3233 11.42 67.4733 11.228 67.5693 11.012L69.9273 11.732C69.7113 12.2 69.3933 12.62 68.9733 12.992C68.5653 13.364 68.0793 13.658 67.5153 13.874C66.9633 14.078 66.3393 14.18 65.6433 14.18ZM80.1775 14H77.7655V8.708C77.7655 7.976 77.6215 7.43 77.3335 7.07C77.0575 6.71 76.6735 6.53 76.1815 6.53C75.8935 6.53 75.5875 6.614 75.2635 6.782C74.9395 6.95 74.6455 7.184 74.3815 7.484C74.1295 7.772 73.9435 8.108 73.8235 8.492V14H71.4115V0.86H73.8235V6.314C74.1715 5.714 74.6455 5.246 75.2455 4.91C75.8455 4.574 76.4995 4.406 77.2075 4.406C77.8195 4.406 78.3175 4.514 78.7015 4.73C79.0855 4.934 79.3855 5.216 79.6015 5.576C79.8175 5.924 79.9675 6.32 80.0515 6.764C80.1355 7.196 80.1775 7.646 80.1775 8.114V14ZM86.6488 14.18C85.8928 14.18 85.2088 14.054 84.5968 13.802C83.9848 13.538 83.4628 13.184 83.0308 12.74C82.5988 12.284 82.2628 11.768 82.0228 11.192C81.7948 10.604 81.6808 9.986 81.6808 9.338C81.6808 8.438 81.8788 7.616 82.2748 6.872C82.6828 6.128 83.2588 5.534 84.0028 5.09C84.7588 4.634 85.6468 4.406 86.6668 4.406C87.6988 4.406 88.5808 4.634 89.3128 5.09C90.0448 5.534 90.6028 6.128 90.9868 6.872C91.3828 7.604 91.5808 8.396 91.5808 9.248C91.5808 9.392 91.5748 9.542 91.5628 9.698C91.5508 9.842 91.5388 9.962 91.5268 10.058H84.2368C84.2848 10.538 84.4228 10.958 84.6508 11.318C84.8908 11.678 85.1908 11.954 85.5508 12.146C85.9228 12.326 86.3188 12.416 86.7388 12.416C87.2188 12.416 87.6688 12.302 88.0888 12.074C88.5208 11.834 88.8148 11.522 88.9708 11.138L91.0408 11.714C90.8128 12.194 90.4828 12.62 90.0508 12.992C89.6308 13.364 89.1328 13.658 88.5568 13.874C87.9808 14.078 87.3448 14.18 86.6488 14.18ZM84.1828 8.528H89.1148C89.0668 8.048 88.9288 7.634 88.7008 7.286C88.4848 6.926 88.1968 6.65 87.8368 6.458C87.4768 6.254 87.0748 6.152 86.6308 6.152C86.1988 6.152 85.8028 6.254 85.4428 6.458C85.0948 6.65 84.8068 6.926 84.5788 7.286C84.3628 7.634 84.2308 8.048 84.1828 8.528ZM98.6661 6.656C97.9341 6.656 97.2801 6.8 96.7041 7.088C96.1281 7.364 95.7141 7.766 95.4621 8.294V14H93.0501V4.568H95.2641V6.584C95.6001 5.936 96.0261 5.426 96.5421 5.054C97.0581 4.682 97.6041 4.478 98.1801 4.442C98.3121 4.442 98.4141 4.442 98.4861 4.442C98.5581 4.442 98.6181 4.448 98.6661 4.46V6.656Z" fill="white"/>
</svg>
